Coordinates
version=1
nRows=19
nColumns=63
inDegrees=yes

Units are S.I. units (second, meters, Newtons, ...)
If the header above contains a line with 'inDegrees', this indicates whether rotational values are in degrees (yes) or radians (no).

endheader
time	pelvis_tilt	pelvis_list	pelvis_rotation	pelvis_tx	pelvis_ty	pelvis_tz	hip_flexion_r	hip_adduction_r	hip_rotation_r	knee_angle_r	knee_angle_r_beta	ankle_angle_r	subtalar_angle_r	mtp_angle_r	hip_flexion_l	hip_adduction_l	hip_rotation_l	knee_angle_l	knee_angle_l_beta	ankle_angle_l	subtalar_angle_l	mtp_angle_l	L5_S1_Flex_Ext	L5_S1_Lat_Bending	L5_S1_axial_rotation	L4_L5_Flex_Ext	L4_L5_Lat_Bending	L4_L5_axial_rotation	L3_L4_Flex_Ext	L3_L4_Lat_Bending	L3_L4_axial_rotation	L2_L3_Flex_Ext	L2_L3_Lat_Bending	L2_L3_axial_rotation	L1_L2_Flex_Ext	L1_L2_Lat_Bending	L1_L2_axial_rotation	L1_T12_Flex_Ext	L1_T12_Lat_Bending	L1_T12_axial_rotation	Abs_r3	Abs_r2	Abs_r1	Abs_t1	Abs_t2	neck_flexion	neck_bending	neck_rotation	arm_flex_r	arm_add_r	arm_rot_r	elbow_flex_r	pro_sup_r	wrist_flex_r	wrist_dev_r	arm_flex_l	arm_add_l	arm_rot_l	elbow_flex_l	pro_sup_l	wrist_flex_l	wrist_dev_l
1.543860	-8.258918	-11.681509	76.275046	0.238042	0.769101	0.642931	11.798484	-6.115181	4.683720	7.829589	0.136652	14.504574	8.461296	0.000000	8.452909	3.686257	-8.664579	3.873663	0.067608	9.698034	-0.698930	0.000000	-0.093907	0.037667	-1.299636	-0.174394	0.050098	-1.380864	-0.154280	0.091585	-1.380864	-0.107326	0.091585	-1.137182	-0.087202	0.076812	-1.055955	-0.053658	0.058347	-0.974727	-0.670767	0.426102	-7.228188	0.000000	0.000000	16.344052	19.448842	-3.209478	35.040244	-4.550118	0.331487	90.373155	84.302858	-11.417734	5.425792	49.758753	-3.487972	23.776093	82.123884	58.739377	-20.334737	11.455654
1.561404	-8.437105	-11.668050	75.683567	0.240311	0.768972	0.641458	11.632587	-6.097814	5.348098	7.463260	0.130258	14.514711	8.493962	0.000000	8.251990	3.705901	-9.608613	3.652158	0.063742	9.936507	0.047614	0.000000	-0.063566	-0.008129	-0.929058	-0.118049	-0.010811	-0.987124	-0.104433	-0.019764	-0.987124	-0.072650	-0.019764	-0.812926	-0.059028	-0.016576	-0.754859	-0.036322	-0.012591	-0.696793	-0.454048	-0.091954	-5.167141	0.000000	0.000000	17.235106	18.928029	-6.358255	31.749027	-5.527102	-1.059219	95.578118	84.448718	-10.608692	4.534827	47.872068	-3.576617	25.118657	86.584690	55.885235	-19.063066	10.439876
1.578947	-8.630350	-11.671071	75.036821	0.242644	0.768773	0.639976	11.501163	-6.089948	5.945343	7.117723	0.124228	14.502092	8.641289	0.000000	8.066838	3.741728	-10.418804	3.423270	0.059747	10.118610	0.522398	0.000000	-0.031107	-0.053279	-0.528518	-0.057769	-0.070861	-0.561550	-0.051106	-0.129542	-0.561550	-0.035552	-0.129542	-0.462453	-0.028886	-0.108646	-0.429421	-0.017775	-0.082529	-0.396388	-0.222196	-0.602702	-2.939457	0.000000	0.000000	18.233542	18.279110	-9.358005	28.086400	-6.581770	-2.536160	101.200242	84.906487	-9.972363	3.986706	45.839024	-3.822504	26.681883	91.516271	52.129984	-17.713164	9.626842
1.596491	-8.821683	-11.686016	74.390960	0.244909	0.768515	0.638493	11.387963	-6.094613	6.404129	6.790045	0.118509	14.486716	8.949615	0.000000	7.899586	3.786434	-11.084201	3.212245	0.056064	10.230054	0.789463	0.000000	0.000302	-0.093446	-0.128040	0.000561	-0.124283	-0.136043	0.000497	-0.227204	-0.136043	0.000346	-0.227204	-0.112035	0.000281	-0.190554	-0.104033	0.000173	-0.144747	-0.096030	0.002160	-1.057076	-0.712120	0.000000	0.000000	19.264357	17.563106	-11.878874	24.070108	-7.706524	-3.922422	107.095308	85.451800	-9.572710	3.786239	43.616102	-4.279211	28.268184	96.846870	48.723547	-16.139297	9.153528
1.614035	-9.005274	-11.700839	73.761759	0.247060	0.768195	0.637047	11.286428	-6.111441	6.733535	6.487255	0.113224	14.489601	9.392927	0.000000	7.741041	3.844060	-11.599696	3.027720	0.052844	10.243405	0.822799	0.000000	0.027390	-0.127300	0.248166	0.050867	-0.169309	0.263676	0.045000	-0.309518	0.263676	0.031305	-0.309518	0.217145	0.025435	-0.259591	0.201635	0.015651	-0.197188	0.186125	0.195647	-1.440047	1.380225	0.000000	0.000000	20.310198	16.872559	-13.664528	19.785542	-8.924610	-5.013343	113.035504	85.941817	-9.353457	3.780538	41.168639	-5.017514	29.809924	102.440208	45.999465	-14.359849	8.942905
1.631579	-9.168373	-11.706436	73.174705	0.249011	0.767838	0.635644	11.184876	-6.135502	6.944175	6.207070	0.108334	14.527676	9.937418	0.000000	7.585108	3.910259	-11.951859	2.884820	0.050350	10.151962	0.634780	0.000000	0.048332	-0.154032	0.584551	0.089758	-0.204862	0.621086	0.079405	-0.374513	0.621086	0.055239	-0.374513	0.511482	0.044882	-0.314102	0.474948	0.027617	-0.238595	0.438413	0.345234	-1.742440	3.251099	0.000000	0.000000	21.368473	16.253884	-14.643216	15.331889	-10.222526	-5.683046	118.773989	86.087010	-9.319460	3.936400	38.504050	-6.046897	31.302807	108.080596	44.325566	-12.263806	8.887676
1.649123	-9.289836	-11.688594	72.660954	0.250700	0.767478	0.634286	11.063157	-6.154156	7.009134	5.950555	0.103857	14.630903	10.583578	0.000000	7.433375	3.963829	-12.203042	2.826718	0.049336	10.013233	0.349750	0.000000	0.061731	-0.172906	0.860790	0.114640	-0.229965	0.914589	0.101418	-0.420403	0.914589	0.070552	-0.420403	0.753191	0.057323	-0.352589	0.699392	0.035273	-0.267831	0.645592	0.440937	-1.955943	4.787454	0.000000	0.000000	22.434059	15.775332	-14.748912	10.896922	-11.550150	-5.808612	123.976642	85.730254	-9.407688	4.150439	35.636444	-7.417168	32.833043	113.538145	43.485149	-9.937068	8.826243
1.666667	-9.360998	-11.656270	72.250255	0.252049	0.767138	0.632898	10.918152	-6.158204	6.994650	5.712684	0.099705	14.789427	11.200979	0.000000	7.266078	4.007371	-12.293135	2.804019	0.048939	9.800544	-0.076557	0.000000	0.073276	-0.183355	1.061360	0.136080	-0.243862	1.127695	0.120384	-0.445810	1.127695	0.083747	-0.445810	0.928690	0.068044	-0.373898	0.862355	0.041870	-0.284017	0.796020	0.523400	-2.074150	5.902968	0.000000	0.000000	23.438463	15.442099	-13.954171	6.644089	-12.822802	-5.422520	128.398963	85.139682	-9.503766	4.648674	32.525458	-9.051208	34.255371	118.537033	43.863416	-7.151191	9.084459
1.684211	-9.366686	-11.580572	71.991804	0.252989	0.766878	0.631463	10.718284	-6.151923	6.802606	5.520588	0.096352	15.030533	11.850286	0.000000	7.070129	4.031382	-12.254610	2.857851	0.049879	9.570883	-0.557855	0.000000	0.081503	-0.185746	1.169346	0.151360	-0.247042	1.242431	0.133902	-0.451622	1.242431	0.093150	-0.451622	1.023178	0.075684	-0.378772	0.950094	0.046571	-0.287720	0.877010	0.582171	-2.101191	6.503554	0.000000	0.000000	24.334864	15.267457	-12.258811	2.754188	-13.963744	-4.499068	131.781377	84.693711	-9.602772	5.391924	29.145668	-10.980553	35.597169	122.881319	44.743409	-4.151830	9.586089
1.701754	-9.297686	-11.472545	71.837119	0.253558	0.766701	0.629921	10.461386	-6.115480	6.471800	5.347321	0.093328	15.314335	12.542611	0.000000	6.825333	4.021782	-12.088958	2.938507	0.051287	9.343699	-1.141107	0.000000	0.092589	-0.179549	1.194475	0.171947	-0.238801	1.269130	0.152115	-0.436556	1.269130	0.105820	-0.436556	1.045166	0.085978	-0.366137	0.970511	0.052905	-0.278122	0.895856	0.661355	-2.031099	6.643311	0.000000	0.000000	25.112188	15.197947	-9.818417	-0.697537	-14.970391	-3.082684	133.989513	84.335748	-9.557001	6.218451	25.390486	-13.004373	36.590548	126.323492	46.265631	-0.829461	10.206276
1.719298	-9.154036	-11.318766	71.812433	0.253727	0.766625	0.628253	10.131812	-6.054311	5.995893	5.212449	0.090974	15.630863	13.238685	0.000000	6.521020	3.980886	-11.753538	3.044318	0.053133	9.153630	-1.847166	0.000000	0.107106	-0.166313	1.132956	0.198907	-0.221196	1.203766	0.175965	-0.404373	1.203766	0.122412	-0.404373	0.991336	0.099459	-0.339145	0.920527	0.061201	-0.257619	0.849717	0.765051	-1.881366	6.301161	0.000000	0.000000	25.774836	15.242293	-6.778129	-3.666696	-15.850982	-1.177424	134.948491	83.943493	-9.360955	7.034798	21.216493	-14.996559	37.049236	128.833582	48.863198	2.787606	10.951438
1.736842	-8.932241	-11.107726	71.879492	0.253542	0.766672	0.626489	9.722679	-5.963625	5.420303	5.120609	0.089371	15.958718	13.917779	0.000000	6.135290	3.903807	-11.304465	3.146114	0.054910	9.047064	-2.615407	0.000000	0.123996	-0.146524	0.999498	0.230273	-0.194877	1.061966	0.203713	-0.356259	1.061966	0.141715	-0.356259	0.874560	0.115143	-0.298792	0.812092	0.070851	-0.226966	0.749623	0.885691	-1.657511	5.558906	0.000000	0.000000	26.349636	15.336873	-3.417369	-6.152824	-16.647329	1.181283	134.657088	83.439072	-9.036593	7.768405	16.661858	-16.867817	36.908696	130.402427	52.555260	6.594467	11.753505
1.754386	-8.647273	-10.833196	72.030467	0.253046	0.766852	0.624676	9.230287	-5.856177	4.775540	5.065379	0.088408	16.289531	14.556855	0.000000	5.661567	3.803726	-10.665557	3.219937	0.056199	9.007745	-3.541259	0.000000	0.142002	-0.122838	0.802830	0.263712	-0.163374	0.853007	0.233295	-0.298667	0.853007	0.162294	-0.298667	0.702476	0.131863	-0.250490	0.652299	0.081140	-0.190275	0.602122	1.014307	-1.389563	4.465099	0.000000	0.000000	26.839355	15.508461	0.091699	-8.166384	-17.376525	3.922741	133.120730	82.885841	-8.574007	8.289811	11.798399	-18.568476	36.124376	131.115586	57.171331	10.385643	12.701291
1.771930	-8.301590	-10.483308	72.246007	0.252318	0.767202	0.622887	8.653220	-5.726920	4.114437	5.052508	0.088183	16.616317	15.106736	0.000000	5.106752	3.669844	-10.022228	3.292550	0.057466	9.091079	-4.366089	0.000000	0.156681	-0.096318	0.562684	0.290972	-0.128103	0.597851	0.257411	-0.234187	0.597851	0.179070	-0.234187	0.492348	0.145494	-0.196411	0.457181	0.089527	-0.149196	0.422013	1.119154	-1.089565	3.129478	0.000000	0.000000	27.214056	15.709529	3.576114	-9.758502	-18.011235	6.875672	130.424844	82.425244	-8.114590	8.676106	6.830409	-20.036021	34.644107	131.065923	62.215049	14.568005	13.859654
1.789474	-7.925957	-10.065856	72.503719	0.251436	0.767712	0.621149	8.004638	-5.598063	3.472752	5.061646	0.088342	16.951152	15.580812	0.000000	4.473806	3.528826	-9.282673	3.330809	0.058134	9.216359	-5.241175	0.000000	0.167924	-0.071683	0.296736	0.311851	-0.095338	0.315282	0.275882	-0.174290	0.315282	0.191920	-0.174290	0.259644	0.155934	-0.146176	0.241098	0.095952	-0.111037	0.222552	1.199461	-0.810891	1.650355	0.000000	0.000000	27.455468	15.936463	6.848880	-10.926198	-18.558281	9.938795	126.619758	82.193827	-7.591870	8.797331	1.833159	-21.274093	32.562814	130.364727	67.571400	18.395847	14.901138
1.807018	-7.537324	-9.594638	72.799164	0.250470	0.768378	0.619498	7.298638	-5.475481	2.876114	5.075530	0.088585	17.289036	15.962422	0.000000	3.782857	3.385676	-8.477867	3.332527	0.058164	9.357902	-6.114637	0.000000	0.175632	-0.051882	0.024985	0.326166	-0.069004	0.026547	0.288545	-0.126147	0.026547	0.200729	-0.126147	0.021862	0.163092	-0.105799	0.020301	0.100356	-0.080366	0.018739	1.254520	-0.586904	0.138961	0.000000	0.000000	27.551872	16.175642	9.762567	-11.698339	-18.989921	12.927120	121.852071	82.277475	-6.962152	8.740837	-3.054920	-22.264691	30.016064	129.131631	72.833236	21.540168	15.579185
1.824561	-7.143157	-9.076648	73.116905	0.249447	0.769186	0.617973	6.547754	-5.359766	2.353608	5.088617	0.088813	17.633361	16.245397	0.000000	3.046016	3.241218	-7.676665	3.301151	0.057616	9.506531	-6.907560	0.000000	0.178046	-0.038077	-0.227022	0.330649	-0.050643	-0.241211	0.292512	-0.092581	-0.241211	0.203489	-0.092581	-0.198644	0.165333	-0.077647	-0.184455	0.101735	-0.058982	-0.170266	1.271764	-0.430737	-1.262627	0.000000	0.000000	27.526751	16.335703	12.160396	-12.123847	-19.303803	15.634460	116.351093	82.632304	-6.152119	8.622098	-7.682931	-22.972496	27.125534	127.501838	77.549571	23.891919	15.870719
1.842105	-6.752935	-8.519505	73.442875	0.248401	0.770113	0.616612	5.764059	-5.255917	1.907510	5.095854	0.088939	17.965692	16.447089	0.000000	2.277927	3.100211	-6.936969	3.248151	0.056691	9.649653	-7.566927	0.000000	0.174560	-0.031748	-0.434878	0.324175	-0.042224	-0.462057	0.286784	-0.077191	-0.462057	0.199504	-0.077191	-0.380518	0.162096	-0.064740	-0.353338	0.099743	-0.049177	-0.326158	1.246862	-0.359135	-2.418658	0.000000	0.000000	27.394612	16.344427	13.913234	-12.280327	-19.501700	17.855396	110.394995	83.225595	-5.093099	8.553606	-11.923619	-23.361338	23.982711	125.603912	81.362874	25.460678	15.882941
1.859649	-6.373280	-7.925053	73.746960	0.247375	0.771136	0.615443	4.957944	-5.163889	1.571447	5.101703	0.089042	18.261811	16.576569	0.000000	1.482665	2.967223	-6.283761	3.183886	0.055569	9.741617	-8.135694	0.000000	0.164053	-0.033708	-0.573678	0.304663	-0.044831	-0.609533	0.269523	-0.081957	-0.609533	0.187496	-0.081957	-0.501968	0.152340	-0.068736	-0.466113	0.093740	-0.052213	-0.430259	1.171815	-0.381307	-3.190625	0.000000	0.000000	27.177379	16.090911	14.874698	-12.272900	-19.609125	19.437967	104.325255	84.039635	-3.814345	8.738172	-15.683889	-23.393264	20.666238	123.602317	84.163367	26.024525	15.800916
